<mxfile host="app.diagrams.net" modified="2024-03-31T19:26:50.507Z" agent="Mozilla/5.0 (X11; Linux x86_64; rv:122.0) Gecko/20100101 Firefox/122.0" etag="kscJL0gLU7j4biychhyo" version="24.2.1" type="device">
  <diagram name="Página-1" id="NZujj5kF7Nv2W8xpt5Cg">
    <mxGraphModel dx="1180" dy="446" grid="1" gridSize="10" guides="1" tooltips="1" connect="1" arrows="1" fold="1" page="1" pageScale="1" pageWidth="827" pageHeight="1169" math="0" shadow="0">
      <root>
        <mxCell id="0" />
        <mxCell id="1" parent="0" />
        <mxCell id="bXG1rTM1ORV19wpb9zZl-9" value="Arquitetura Flux,Redux e React state" style="text;strokeColor=none;fillColor=none;html=1;fontSize=24;fontStyle=1;verticalAlign=middle;align=center;" parent="1" vertex="1">
          <mxGeometry x="360" y="20" width="100" height="40" as="geometry" />
        </mxCell>
        <mxCell id="bXG1rTM1ORV19wpb9zZl-33" value="&lt;h1 style=&quot;margin-top: 0px;&quot;&gt;&lt;font style=&quot;font-size: 18px;&quot;&gt;Arquitetura&lt;/font&gt; &lt;font style=&quot;font-size: 18px;&quot;&gt;Flux&lt;/font&gt;&lt;/h1&gt;&lt;p&gt;É apenas uma arquitetura, ou seja, ela indica como devemos estruturar nossa aplicação separando totalmente a View dos dados.Ou seja não é uma biblioteca de armazenamentos de dados.O flux é&amp;nbsp; basicamente dividido&amp;nbsp; em 4 partes( Dispatcher,View,Store).&lt;br&gt;&lt;/p&gt;" style="text;html=1;whiteSpace=wrap;overflow=hidden;rounded=0;" parent="1" vertex="1">
          <mxGeometry x="40" y="60" width="510" height="100" as="geometry" />
        </mxCell>
        <mxCell id="bXG1rTM1ORV19wpb9zZl-77" style="edgeStyle=orthogonalEdgeStyle;rounded=0;orthogonalLoop=1;jettySize=auto;html=1;entryX=0;entryY=0.5;entryDx=0;entryDy=0;" parent="1" source="bXG1rTM1ORV19wpb9zZl-36" target="bXG1rTM1ORV19wpb9zZl-40" edge="1">
          <mxGeometry relative="1" as="geometry">
            <Array as="points">
              <mxPoint x="30" y="280" />
              <mxPoint x="30" y="440" />
            </Array>
          </mxGeometry>
        </mxCell>
        <mxCell id="bXG1rTM1ORV19wpb9zZl-36" value="&lt;b&gt;Acton&lt;/b&gt;" style="rounded=0;whiteSpace=wrap;html=1;" parent="1" vertex="1">
          <mxGeometry x="340" y="250" width="120" height="60" as="geometry" />
        </mxCell>
        <mxCell id="bXG1rTM1ORV19wpb9zZl-83" style="edgeStyle=orthogonalEdgeStyle;rounded=0;orthogonalLoop=1;jettySize=auto;html=1;" parent="1" source="bXG1rTM1ORV19wpb9zZl-40" edge="1">
          <mxGeometry relative="1" as="geometry">
            <mxPoint x="320" y="440" as="targetPoint" />
          </mxGeometry>
        </mxCell>
        <mxCell id="bXG1rTM1ORV19wpb9zZl-40" value="&lt;b&gt;Dispatcher&lt;/b&gt;" style="rounded=0;whiteSpace=wrap;html=1;" parent="1" vertex="1">
          <mxGeometry x="120" y="410" width="140" height="60" as="geometry" />
        </mxCell>
        <mxCell id="bXG1rTM1ORV19wpb9zZl-84" style="edgeStyle=orthogonalEdgeStyle;rounded=0;orthogonalLoop=1;jettySize=auto;html=1;" parent="1" source="bXG1rTM1ORV19wpb9zZl-41" edge="1">
          <mxGeometry relative="1" as="geometry">
            <mxPoint x="540" y="440" as="targetPoint" />
          </mxGeometry>
        </mxCell>
        <mxCell id="bXG1rTM1ORV19wpb9zZl-41" value="&lt;b&gt;View&lt;/b&gt;" style="rounded=0;whiteSpace=wrap;html=1;" parent="1" vertex="1">
          <mxGeometry x="330" y="410" width="150" height="60" as="geometry" />
        </mxCell>
        <mxCell id="bXG1rTM1ORV19wpb9zZl-56" style="edgeStyle=orthogonalEdgeStyle;rounded=0;orthogonalLoop=1;jettySize=auto;html=1;entryX=1;entryY=0.5;entryDx=0;entryDy=0;" parent="1" source="bXG1rTM1ORV19wpb9zZl-42" target="bXG1rTM1ORV19wpb9zZl-36" edge="1">
          <mxGeometry relative="1" as="geometry">
            <Array as="points">
              <mxPoint x="740" y="440" />
              <mxPoint x="740" y="280" />
            </Array>
          </mxGeometry>
        </mxCell>
        <mxCell id="bXG1rTM1ORV19wpb9zZl-42" value="&lt;b&gt;Store&lt;/b&gt;" style="rounded=0;whiteSpace=wrap;html=1;" parent="1" vertex="1">
          <mxGeometry x="550" y="410" width="140" height="60" as="geometry" />
        </mxCell>
        <mxCell id="bXG1rTM1ORV19wpb9zZl-65" value="Definição de local. Objeto usado para padronizar a comunicação entre View e Dispatcher" style="text;html=1;align=center;verticalAlign=middle;whiteSpace=wrap;rounded=0;" parent="1" vertex="1">
          <mxGeometry x="331.25" y="210" width="140" height="20" as="geometry" />
        </mxCell>
        <mxCell id="bXG1rTM1ORV19wpb9zZl-66" value="Componetes visuais.Tudo que aparece ao usuaro.(formulario,botão.Html." style="text;html=1;align=center;verticalAlign=middle;whiteSpace=wrap;rounded=0;" parent="1" vertex="1">
          <mxGeometry x="370" y="360" width="60" height="30" as="geometry" />
        </mxCell>
        <mxCell id="bXG1rTM1ORV19wpb9zZl-73" value="armazenamento e função que altera os dados " style="text;html=1;align=center;verticalAlign=middle;whiteSpace=wrap;rounded=0;" parent="1" vertex="1">
          <mxGeometry x="580" y="360" width="60" height="30" as="geometry" />
        </mxCell>
        <mxCell id="bXG1rTM1ORV19wpb9zZl-80" value="Central de cominicação,não tem inteligencia.Repassa para o store o que precisa ser feito" style="text;html=1;align=center;verticalAlign=middle;whiteSpace=wrap;rounded=0;" parent="1" vertex="1">
          <mxGeometry x="127.5" y="360" width="125" height="30" as="geometry" />
        </mxCell>
        <mxCell id="bXG1rTM1ORV19wpb9zZl-101" style="edgeStyle=orthogonalEdgeStyle;rounded=0;orthogonalLoop=1;jettySize=auto;html=1;entryX=0.5;entryY=0;entryDx=0;entryDy=0;" parent="1" source="bXG1rTM1ORV19wpb9zZl-85" target="bXG1rTM1ORV19wpb9zZl-91" edge="1">
          <mxGeometry relative="1" as="geometry" />
        </mxCell>
        <mxCell id="bXG1rTM1ORV19wpb9zZl-85" value="&lt;b&gt;Exemplo de como funciona o Flux&lt;/b&gt;" style="text;html=1;align=center;verticalAlign=middle;whiteSpace=wrap;rounded=0;" parent="1" vertex="1">
          <mxGeometry x="30" y="500" width="80" height="40" as="geometry" />
        </mxCell>
        <mxCell id="bXG1rTM1ORV19wpb9zZl-96" style="edgeStyle=orthogonalEdgeStyle;rounded=0;orthogonalLoop=1;jettySize=auto;html=1;" parent="1" source="bXG1rTM1ORV19wpb9zZl-86" edge="1">
          <mxGeometry relative="1" as="geometry">
            <mxPoint x="230" y="650" as="targetPoint" />
          </mxGeometry>
        </mxCell>
        <mxCell id="bXG1rTM1ORV19wpb9zZl-86" value="num click de botão indica para o Dispatcher qual código a ser apagado" style="rounded=0;whiteSpace=wrap;html=1;" parent="1" vertex="1">
          <mxGeometry x="50" y="610" width="120" height="80" as="geometry" />
        </mxCell>
        <mxCell id="bXG1rTM1ORV19wpb9zZl-87" value="Text" style="text;html=1;align=center;verticalAlign=middle;whiteSpace=wrap;rounded=0;" parent="1" vertex="1">
          <mxGeometry x="410" y="470" width="60" height="30" as="geometry" />
        </mxCell>
        <mxCell id="bXG1rTM1ORV19wpb9zZl-88" value="Text" style="text;html=1;align=center;verticalAlign=middle;whiteSpace=wrap;rounded=0;" parent="1" vertex="1">
          <mxGeometry x="410" y="470" width="60" height="30" as="geometry" />
        </mxCell>
        <mxCell id="bXG1rTM1ORV19wpb9zZl-91" value="&lt;b&gt;View&lt;/b&gt;" style="text;html=1;align=center;verticalAlign=middle;whiteSpace=wrap;rounded=0;" parent="1" vertex="1">
          <mxGeometry x="80" y="585" width="60" height="30" as="geometry" />
        </mxCell>
        <mxCell id="bXG1rTM1ORV19wpb9zZl-103" style="edgeStyle=orthogonalEdgeStyle;rounded=0;orthogonalLoop=1;jettySize=auto;html=1;" parent="1" source="bXG1rTM1ORV19wpb9zZl-92" edge="1">
          <mxGeometry relative="1" as="geometry">
            <mxPoint x="420" y="650" as="targetPoint" />
          </mxGeometry>
        </mxCell>
        <mxCell id="bXG1rTM1ORV19wpb9zZl-92" value="Repassa&amp;nbsp; ao Store para que o mesmo apague&amp;nbsp; o código solicitado pela View " style="rounded=0;whiteSpace=wrap;html=1;" parent="1" vertex="1">
          <mxGeometry x="240" y="610" width="120" height="80" as="geometry" />
        </mxCell>
        <mxCell id="bXG1rTM1ORV19wpb9zZl-94" value="&lt;b&gt;Dispatcher&lt;/b&gt;" style="text;html=1;align=center;verticalAlign=middle;whiteSpace=wrap;rounded=0;" parent="1" vertex="1">
          <mxGeometry x="270" y="585" width="60" height="30" as="geometry" />
        </mxCell>
        <mxCell id="bXG1rTM1ORV19wpb9zZl-97" value="Analisa todos os dados e a lógica necessária para apagar o código em questão." style="rounded=0;whiteSpace=wrap;html=1;" parent="1" vertex="1">
          <mxGeometry x="430" y="610" width="120" height="80" as="geometry" />
        </mxCell>
        <mxCell id="bXG1rTM1ORV19wpb9zZl-104" value="Text" style="text;html=1;align=center;verticalAlign=middle;whiteSpace=wrap;rounded=0;" parent="1" vertex="1">
          <mxGeometry x="410" y="470" width="60" height="30" as="geometry" />
        </mxCell>
        <mxCell id="bXG1rTM1ORV19wpb9zZl-106" value="&lt;b&gt;Store&lt;/b&gt;" style="text;html=1;align=center;verticalAlign=middle;whiteSpace=wrap;rounded=0;" parent="1" vertex="1">
          <mxGeometry x="460" y="585" width="60" height="30" as="geometry" />
        </mxCell>
        <mxCell id="bXG1rTM1ORV19wpb9zZl-108" value="&lt;h1 style=&quot;margin-top: 0px;&quot;&gt;&lt;font style=&quot;font-size: 18px;&quot;&gt;Redux&lt;/font&gt;&lt;/h1&gt;&lt;p&gt;É&amp;nbsp; uma biblioteca de armazenamento de aplicações JavaScript criada por&amp;nbsp; Dan Abramov ,nasceu através da implemetação do Flux. Soluciona o problema de compartilhamento de estados entre componentes, para um unico sentido de direcionamento.&lt;picture&gt;&lt;source type=&quot;image/webp&quot;&gt;&lt;source data-testid=&quot;og&quot;&gt;&lt;/picture&gt;&lt;/p&gt;" style="text;html=1;whiteSpace=wrap;overflow=hidden;rounded=0;" parent="1" vertex="1">
          <mxGeometry x="35" y="710" width="490" height="110" as="geometry" />
        </mxCell>
        <mxCell id="bXG1rTM1ORV19wpb9zZl-112" value="" style="ellipse;whiteSpace=wrap;html=1;aspect=fixed;" parent="1" vertex="1">
          <mxGeometry x="115" y="850" width="30" height="30" as="geometry" />
        </mxCell>
        <mxCell id="bXG1rTM1ORV19wpb9zZl-113" value="" style="ellipse;whiteSpace=wrap;html=1;aspect=fixed;" parent="1" vertex="1">
          <mxGeometry x="90" y="890" width="30" height="30" as="geometry" />
        </mxCell>
        <mxCell id="bXG1rTM1ORV19wpb9zZl-114" value="" style="ellipse;whiteSpace=wrap;html=1;aspect=fixed;" parent="1" vertex="1">
          <mxGeometry x="70" y="930" width="30" height="30" as="geometry" />
        </mxCell>
        <mxCell id="bXG1rTM1ORV19wpb9zZl-115" value="" style="ellipse;whiteSpace=wrap;html=1;aspect=fixed;" parent="1" vertex="1">
          <mxGeometry x="40" y="970" width="30" height="30" as="geometry" />
        </mxCell>
        <mxCell id="bXG1rTM1ORV19wpb9zZl-116" value="" style="ellipse;whiteSpace=wrap;html=1;aspect=fixed;" parent="1" vertex="1">
          <mxGeometry x="145" y="890" width="30" height="30" as="geometry" />
        </mxCell>
        <mxCell id="bXG1rTM1ORV19wpb9zZl-118" value="" style="ellipse;whiteSpace=wrap;html=1;aspect=fixed;" parent="1" vertex="1">
          <mxGeometry x="160" y="930" width="30" height="30" as="geometry" />
        </mxCell>
        <mxCell id="bXG1rTM1ORV19wpb9zZl-119" value="" style="ellipse;whiteSpace=wrap;html=1;aspect=fixed;" parent="1" vertex="1">
          <mxGeometry x="177.5" y="970" width="30" height="30" as="geometry" />
        </mxCell>
        <mxCell id="bXG1rTM1ORV19wpb9zZl-120" value="" style="ellipse;whiteSpace=wrap;html=1;aspect=fixed;" parent="1" vertex="1">
          <mxGeometry x="85" y="970" width="30" height="30" as="geometry" />
        </mxCell>
        <mxCell id="bXG1rTM1ORV19wpb9zZl-121" value="" style="ellipse;whiteSpace=wrap;html=1;aspect=fixed;" parent="1" vertex="1">
          <mxGeometry x="130" y="970" width="30" height="30" as="geometry" />
        </mxCell>
        <mxCell id="bXG1rTM1ORV19wpb9zZl-122" value="" style="ellipse;whiteSpace=wrap;html=1;aspect=fixed;" parent="1" vertex="1">
          <mxGeometry x="120" y="930" width="30" height="30" as="geometry" />
        </mxCell>
        <mxCell id="bXG1rTM1ORV19wpb9zZl-131" value="" style="ellipse;whiteSpace=wrap;html=1;aspect=fixed;" parent="1" vertex="1">
          <mxGeometry x="386.25" y="850" width="30" height="30" as="geometry" />
        </mxCell>
        <mxCell id="bXG1rTM1ORV19wpb9zZl-132" value="" style="ellipse;whiteSpace=wrap;html=1;aspect=fixed;" parent="1" vertex="1">
          <mxGeometry x="361.25" y="890" width="30" height="30" as="geometry" />
        </mxCell>
        <mxCell id="bXG1rTM1ORV19wpb9zZl-133" value="" style="ellipse;whiteSpace=wrap;html=1;aspect=fixed;" parent="1" vertex="1">
          <mxGeometry x="341.25" y="930" width="30" height="30" as="geometry" />
        </mxCell>
        <mxCell id="bXG1rTM1ORV19wpb9zZl-134" value="" style="ellipse;whiteSpace=wrap;html=1;aspect=fixed;" parent="1" vertex="1">
          <mxGeometry x="321.25" y="970" width="30" height="30" as="geometry" />
        </mxCell>
        <mxCell id="bXG1rTM1ORV19wpb9zZl-135" value="" style="ellipse;whiteSpace=wrap;html=1;aspect=fixed;" parent="1" vertex="1">
          <mxGeometry x="410" y="970" width="30" height="30" as="geometry" />
        </mxCell>
        <mxCell id="bXG1rTM1ORV19wpb9zZl-136" value="" style="ellipse;whiteSpace=wrap;html=1;aspect=fixed;direction=south;" parent="1" vertex="1">
          <mxGeometry x="448.75" y="970" width="30" height="30" as="geometry" />
        </mxCell>
        <mxCell id="bXG1rTM1ORV19wpb9zZl-137" value="" style="ellipse;whiteSpace=wrap;html=1;aspect=fixed;" parent="1" vertex="1">
          <mxGeometry x="431.25" y="930" width="30" height="30" as="geometry" />
        </mxCell>
        <mxCell id="bXG1rTM1ORV19wpb9zZl-138" value="" style="ellipse;whiteSpace=wrap;html=1;aspect=fixed;" parent="1" vertex="1">
          <mxGeometry x="411.25" y="890" width="30" height="30" as="geometry" />
        </mxCell>
        <mxCell id="bXG1rTM1ORV19wpb9zZl-139" value="" style="ellipse;whiteSpace=wrap;html=1;aspect=fixed;" parent="1" vertex="1">
          <mxGeometry x="386.25" y="930" width="30" height="30" as="geometry" />
        </mxCell>
        <mxCell id="bXG1rTM1ORV19wpb9zZl-140" value="" style="ellipse;whiteSpace=wrap;html=1;aspect=fixed;" parent="1" vertex="1">
          <mxGeometry x="361.25" y="970" width="30" height="30" as="geometry" />
        </mxCell>
        <mxCell id="bXG1rTM1ORV19wpb9zZl-145" value="" style="curved=1;endArrow=classic;html=1;rounded=0;" parent="1" edge="1">
          <mxGeometry width="50" height="50" relative="1" as="geometry">
            <mxPoint x="100" y="950" as="sourcePoint" />
            <mxPoint x="140" y="910" as="targetPoint" />
            <Array as="points">
              <mxPoint x="120" y="940" />
              <mxPoint x="120" y="910" />
            </Array>
          </mxGeometry>
        </mxCell>
        <mxCell id="bXG1rTM1ORV19wpb9zZl-152" value="" style="curved=1;endArrow=classic;html=1;rounded=0;exitX=0;exitY=0.5;exitDx=0;exitDy=0;" parent="1" source="bXG1rTM1ORV19wpb9zZl-113" edge="1">
          <mxGeometry width="50" height="50" relative="1" as="geometry">
            <mxPoint x="65" y="910" as="sourcePoint" />
            <mxPoint x="115" y="860" as="targetPoint" />
            <Array as="points">
              <mxPoint x="70" y="900" />
              <mxPoint x="60" y="890" />
              <mxPoint x="65" y="880" />
              <mxPoint x="80" y="870" />
            </Array>
          </mxGeometry>
        </mxCell>
        <mxCell id="bXG1rTM1ORV19wpb9zZl-154" value="" style="curved=1;endArrow=classic;html=1;rounded=0;" parent="1" edge="1">
          <mxGeometry width="50" height="50" relative="1" as="geometry">
            <mxPoint x="100" y="900" as="sourcePoint" />
            <mxPoint x="145" y="910" as="targetPoint" />
            <Array as="points">
              <mxPoint x="110" y="880" />
              <mxPoint x="140" y="900" />
              <mxPoint x="155" y="870" />
              <mxPoint x="110" y="890" />
            </Array>
          </mxGeometry>
        </mxCell>
        <mxCell id="bXG1rTM1ORV19wpb9zZl-155" value="" style="curved=1;endArrow=classic;html=1;rounded=0;entryX=0;entryY=0.5;entryDx=0;entryDy=0;" parent="1" target="bXG1rTM1ORV19wpb9zZl-114" edge="1">
          <mxGeometry width="50" height="50" relative="1" as="geometry">
            <mxPoint x="90" y="900" as="sourcePoint" />
            <mxPoint x="75" y="980" as="targetPoint" />
            <Array as="points">
              <mxPoint x="90" y="910" />
              <mxPoint x="90" y="900" />
              <mxPoint x="60" y="890" />
            </Array>
          </mxGeometry>
        </mxCell>
        <mxCell id="bXG1rTM1ORV19wpb9zZl-156" value="" style="curved=1;endArrow=classic;html=1;rounded=0;entryX=1;entryY=0.5;entryDx=0;entryDy=0;exitX=1;exitY=0.5;exitDx=0;exitDy=0;" parent="1" source="bXG1rTM1ORV19wpb9zZl-112" target="bXG1rTM1ORV19wpb9zZl-116" edge="1">
          <mxGeometry width="50" height="50" relative="1" as="geometry">
            <mxPoint x="120" y="860" as="sourcePoint" />
            <mxPoint x="190" y="940" as="targetPoint" />
            <Array as="points">
              <mxPoint x="170" y="880" />
              <mxPoint x="140" y="860" />
            </Array>
          </mxGeometry>
        </mxCell>
        <mxCell id="bXG1rTM1ORV19wpb9zZl-157" value="" style="endArrow=classic;html=1;rounded=0;" parent="1" edge="1">
          <mxGeometry width="50" height="50" relative="1" as="geometry">
            <mxPoint x="135" y="940" as="sourcePoint" />
            <mxPoint x="155" y="920" as="targetPoint" />
          </mxGeometry>
        </mxCell>
        <mxCell id="bXG1rTM1ORV19wpb9zZl-158" value="" style="endArrow=classic;html=1;rounded=0;" parent="1" edge="1">
          <mxGeometry width="50" height="50" relative="1" as="geometry">
            <mxPoint x="130" y="940" as="sourcePoint" />
            <mxPoint x="115" y="920" as="targetPoint" />
          </mxGeometry>
        </mxCell>
        <mxCell id="bXG1rTM1ORV19wpb9zZl-159" value="" style="endArrow=classic;html=1;rounded=0;" parent="1" edge="1">
          <mxGeometry width="50" height="50" relative="1" as="geometry">
            <mxPoint x="170" y="930" as="sourcePoint" />
            <mxPoint x="147.5" y="940" as="targetPoint" />
          </mxGeometry>
        </mxCell>
        <mxCell id="bXG1rTM1ORV19wpb9zZl-160" value="" style="endArrow=classic;html=1;rounded=0;" parent="1" edge="1">
          <mxGeometry width="50" height="50" relative="1" as="geometry">
            <mxPoint x="110" y="980" as="sourcePoint" />
            <mxPoint x="130" y="960" as="targetPoint" />
          </mxGeometry>
        </mxCell>
        <mxCell id="bXG1rTM1ORV19wpb9zZl-161" value="" style="endArrow=none;html=1;rounded=0;" parent="1" edge="1">
          <mxGeometry width="50" height="50" relative="1" as="geometry">
            <mxPoint x="60" y="970" as="sourcePoint" />
            <mxPoint x="75" y="950" as="targetPoint" />
          </mxGeometry>
        </mxCell>
        <mxCell id="bXG1rTM1ORV19wpb9zZl-163" value="" style="endArrow=none;html=1;rounded=0;" parent="1" edge="1">
          <mxGeometry width="50" height="50" relative="1" as="geometry">
            <mxPoint x="105" y="970" as="sourcePoint" />
            <mxPoint x="90" y="950" as="targetPoint" />
          </mxGeometry>
        </mxCell>
        <mxCell id="bXG1rTM1ORV19wpb9zZl-164" value="" style="endArrow=none;html=1;rounded=0;" parent="1" edge="1">
          <mxGeometry width="50" height="50" relative="1" as="geometry">
            <mxPoint x="80" y="930" as="sourcePoint" />
            <mxPoint x="95" y="910" as="targetPoint" />
          </mxGeometry>
        </mxCell>
        <mxCell id="bXG1rTM1ORV19wpb9zZl-165" value="" style="ellipse;whiteSpace=wrap;html=1;aspect=fixed;" parent="1" vertex="1">
          <mxGeometry x="70" y="930" width="30" height="30" as="geometry" />
        </mxCell>
        <mxCell id="bXG1rTM1ORV19wpb9zZl-166" value="" style="endArrow=none;html=1;rounded=0;" parent="1" edge="1">
          <mxGeometry width="50" height="50" relative="1" as="geometry">
            <mxPoint x="100" y="890" as="sourcePoint" />
            <mxPoint x="115" y="870" as="targetPoint" />
          </mxGeometry>
        </mxCell>
        <mxCell id="bXG1rTM1ORV19wpb9zZl-167" value="" style="endArrow=none;html=1;rounded=0;" parent="1" edge="1">
          <mxGeometry width="50" height="50" relative="1" as="geometry">
            <mxPoint x="200" y="970" as="sourcePoint" />
            <mxPoint x="185" y="950" as="targetPoint" />
          </mxGeometry>
        </mxCell>
        <mxCell id="bXG1rTM1ORV19wpb9zZl-169" value="" style="endArrow=none;html=1;rounded=0;" parent="1" edge="1">
          <mxGeometry width="50" height="50" relative="1" as="geometry">
            <mxPoint x="150" y="970" as="sourcePoint" />
            <mxPoint x="165" y="950" as="targetPoint" />
          </mxGeometry>
        </mxCell>
        <mxCell id="bXG1rTM1ORV19wpb9zZl-171" value="" style="endArrow=none;html=1;rounded=0;" parent="1" edge="1">
          <mxGeometry width="50" height="50" relative="1" as="geometry">
            <mxPoint x="180" y="930" as="sourcePoint" />
            <mxPoint x="170" y="910" as="targetPoint" />
          </mxGeometry>
        </mxCell>
        <mxCell id="bXG1rTM1ORV19wpb9zZl-172" value="" style="endArrow=none;html=1;rounded=0;" parent="1" edge="1">
          <mxGeometry width="50" height="50" relative="1" as="geometry">
            <mxPoint x="155" y="890" as="sourcePoint" />
            <mxPoint x="145" y="870" as="targetPoint" />
          </mxGeometry>
        </mxCell>
        <mxCell id="bXG1rTM1ORV19wpb9zZl-173" value="" style="endArrow=none;html=1;rounded=0;" parent="1" edge="1">
          <mxGeometry width="50" height="50" relative="1" as="geometry">
            <mxPoint x="322.87" y="980" as="sourcePoint" />
            <mxPoint x="341.25" y="950" as="targetPoint" />
          </mxGeometry>
        </mxCell>
        <mxCell id="bXG1rTM1ORV19wpb9zZl-179" value="" style="endArrow=none;html=1;rounded=0;" parent="1" edge="1">
          <mxGeometry width="50" height="50" relative="1" as="geometry">
            <mxPoint x="341.62" y="940" as="sourcePoint" />
            <mxPoint x="360" y="910" as="targetPoint" />
          </mxGeometry>
        </mxCell>
        <mxCell id="bXG1rTM1ORV19wpb9zZl-180" value="" style="endArrow=none;html=1;rounded=0;" parent="1" edge="1">
          <mxGeometry width="50" height="50" relative="1" as="geometry">
            <mxPoint x="371.25" y="890" as="sourcePoint" />
            <mxPoint x="389.63" y="860" as="targetPoint" />
          </mxGeometry>
        </mxCell>
        <mxCell id="bXG1rTM1ORV19wpb9zZl-182" value="" style="endArrow=none;html=1;rounded=0;" parent="1" edge="1">
          <mxGeometry width="50" height="50" relative="1" as="geometry">
            <mxPoint x="426.25" y="890" as="sourcePoint" />
            <mxPoint x="416.25" y="870" as="targetPoint" />
          </mxGeometry>
        </mxCell>
        <mxCell id="bXG1rTM1ORV19wpb9zZl-184" value="" style="endArrow=none;html=1;rounded=0;" parent="1" edge="1">
          <mxGeometry width="50" height="50" relative="1" as="geometry">
            <mxPoint x="448.75" y="930" as="sourcePoint" />
            <mxPoint x="438.75" y="910" as="targetPoint" />
          </mxGeometry>
        </mxCell>
        <mxCell id="bXG1rTM1ORV19wpb9zZl-185" value="" style="endArrow=none;html=1;rounded=0;" parent="1" edge="1">
          <mxGeometry width="50" height="50" relative="1" as="geometry">
            <mxPoint x="468.75" y="970" as="sourcePoint" />
            <mxPoint x="458.75" y="950" as="targetPoint" />
          </mxGeometry>
        </mxCell>
        <mxCell id="bXG1rTM1ORV19wpb9zZl-190" value="" style="endArrow=none;html=1;rounded=0;" parent="1" edge="1">
          <mxGeometry width="50" height="50" relative="1" as="geometry">
            <mxPoint x="422.5" y="970" as="sourcePoint" />
            <mxPoint x="431.25" y="950" as="targetPoint" />
          </mxGeometry>
        </mxCell>
        <mxCell id="bXG1rTM1ORV19wpb9zZl-191" value="" style="endArrow=none;html=1;rounded=0;" parent="1" edge="1">
          <mxGeometry width="50" height="50" relative="1" as="geometry">
            <mxPoint x="135" y="930" as="sourcePoint" />
            <mxPoint x="150" y="910" as="targetPoint" />
          </mxGeometry>
        </mxCell>
        <mxCell id="bXG1rTM1ORV19wpb9zZl-193" value="" style="endArrow=none;html=1;rounded=0;" parent="1" edge="1">
          <mxGeometry width="50" height="50" relative="1" as="geometry">
            <mxPoint x="401.25" y="930" as="sourcePoint" />
            <mxPoint x="410" y="910" as="targetPoint" />
          </mxGeometry>
        </mxCell>
        <mxCell id="bXG1rTM1ORV19wpb9zZl-194" value="" style="endArrow=none;html=1;rounded=0;" parent="1" edge="1">
          <mxGeometry width="50" height="50" relative="1" as="geometry">
            <mxPoint x="380" y="970" as="sourcePoint" />
            <mxPoint x="370" y="950" as="targetPoint" />
          </mxGeometry>
        </mxCell>
        <mxCell id="bXG1rTM1ORV19wpb9zZl-195" value="" style="ellipse;whiteSpace=wrap;html=1;" parent="1" vertex="1">
          <mxGeometry x="290" y="850" width="70" height="30" as="geometry" />
        </mxCell>
        <mxCell id="bXG1rTM1ORV19wpb9zZl-202" style="edgeStyle=orthogonalEdgeStyle;rounded=0;orthogonalLoop=1;jettySize=auto;html=1;entryX=0;entryY=0.5;entryDx=0;entryDy=0;" parent="1" source="bXG1rTM1ORV19wpb9zZl-197" target="bXG1rTM1ORV19wpb9zZl-133" edge="1">
          <mxGeometry relative="1" as="geometry" />
        </mxCell>
        <mxCell id="bXG1rTM1ORV19wpb9zZl-210" style="edgeStyle=orthogonalEdgeStyle;rounded=0;orthogonalLoop=1;jettySize=auto;html=1;entryX=1;entryY=0.5;entryDx=0;entryDy=0;" parent="1" source="bXG1rTM1ORV19wpb9zZl-197" target="bXG1rTM1ORV19wpb9zZl-137" edge="1">
          <mxGeometry relative="1" as="geometry">
            <mxPoint x="490" y="950" as="targetPoint" />
            <Array as="points">
              <mxPoint x="321" y="840" />
              <mxPoint x="491" y="840" />
              <mxPoint x="491" y="945" />
            </Array>
          </mxGeometry>
        </mxCell>
        <mxCell id="bXG1rTM1ORV19wpb9zZl-211" style="edgeStyle=orthogonalEdgeStyle;rounded=0;orthogonalLoop=1;jettySize=auto;html=1;entryX=1;entryY=0.5;entryDx=0;entryDy=0;" parent="1" target="bXG1rTM1ORV19wpb9zZl-138" edge="1">
          <mxGeometry relative="1" as="geometry">
            <mxPoint x="350" y="860" as="sourcePoint" />
            <Array as="points">
              <mxPoint x="470" y="850" />
              <mxPoint x="470" y="905" />
            </Array>
          </mxGeometry>
        </mxCell>
        <mxCell id="bXG1rTM1ORV19wpb9zZl-197" value="&lt;b&gt;&amp;nbsp; Store&lt;/b&gt;" style="text;html=1;align=center;verticalAlign=middle;whiteSpace=wrap;rounded=0;" parent="1" vertex="1">
          <mxGeometry x="291.25" y="850" width="60" height="30" as="geometry" />
        </mxCell>
        <mxCell id="bXG1rTM1ORV19wpb9zZl-198" value="" style="endArrow=classic;html=1;rounded=0;entryX=1;entryY=0.75;entryDx=0;entryDy=0;exitX=0;exitY=0;exitDx=0;exitDy=0;" parent="1" source="bXG1rTM1ORV19wpb9zZl-139" target="bXG1rTM1ORV19wpb9zZl-197" edge="1">
          <mxGeometry width="50" height="50" relative="1" as="geometry">
            <mxPoint x="410" y="890" as="sourcePoint" />
            <mxPoint x="460" y="840" as="targetPoint" />
            <Array as="points">
              <mxPoint x="400" y="910" />
              <mxPoint x="390" y="890" />
            </Array>
          </mxGeometry>
        </mxCell>
        <mxCell id="bXG1rTM1ORV19wpb9zZl-203" style="edgeStyle=orthogonalEdgeStyle;rounded=0;orthogonalLoop=1;jettySize=auto;html=1;entryX=0.896;entryY=1.167;entryDx=0;entryDy=0;entryPerimeter=0;" parent="1" source="bXG1rTM1ORV19wpb9zZl-140" target="bXG1rTM1ORV19wpb9zZl-197" edge="1">
          <mxGeometry relative="1" as="geometry">
            <Array as="points">
              <mxPoint x="380" y="925" />
              <mxPoint x="345" y="925" />
            </Array>
          </mxGeometry>
        </mxCell>
        <mxCell id="bXG1rTM1ORV19wpb9zZl-204" value="" style="endArrow=classic;html=1;rounded=0;" parent="1" edge="1">
          <mxGeometry width="50" height="50" relative="1" as="geometry">
            <mxPoint x="366.25" y="900" as="sourcePoint" />
            <mxPoint x="346.25" y="880" as="targetPoint" />
          </mxGeometry>
        </mxCell>
        <mxCell id="bXG1rTM1ORV19wpb9zZl-212" value="Dificuldade de transmussão de estados" style="text;html=1;align=center;verticalAlign=middle;whiteSpace=wrap;rounded=0;" parent="1" vertex="1">
          <mxGeometry x="55" y="1020" width="135" height="30" as="geometry" />
        </mxCell>
        <mxCell id="bXG1rTM1ORV19wpb9zZl-213" value="&lt;div&gt;Solução proposta pelo Redux&lt;br&gt;&lt;/div&gt;" style="text;html=1;align=center;verticalAlign=middle;whiteSpace=wrap;rounded=0;" parent="1" vertex="1">
          <mxGeometry x="361.25" y="1020" width="100" height="30" as="geometry" />
        </mxCell>
        <mxCell id="bXG1rTM1ORV19wpb9zZl-215" value="&lt;b&gt;Exemplo de como funciona o fluxo da evolução de um estado&amp;nbsp; com Redux&lt;/b&gt;" style="text;html=1;align=center;verticalAlign=middle;whiteSpace=wrap;rounded=0;" parent="1" vertex="1">
          <mxGeometry x="50" y="1210" width="110" height="30" as="geometry" />
        </mxCell>
        <mxCell id="bXG1rTM1ORV19wpb9zZl-258" style="edgeStyle=orthogonalEdgeStyle;rounded=0;orthogonalLoop=1;jettySize=auto;html=1;exitX=1;exitY=0.5;exitDx=0;exitDy=0;" parent="1" source="bXG1rTM1ORV19wpb9zZl-218" edge="1">
          <mxGeometry relative="1" as="geometry">
            <mxPoint x="230" y="1400" as="targetPoint" />
          </mxGeometry>
        </mxCell>
        <mxCell id="bXG1rTM1ORV19wpb9zZl-218" value="" style="rounded=0;whiteSpace=wrap;html=1;" parent="1" vertex="1">
          <mxGeometry x="50" y="1370" width="120" height="60" as="geometry" />
        </mxCell>
        <mxCell id="bXG1rTM1ORV19wpb9zZl-219" value="&lt;b&gt;Action&lt;/b&gt;" style="text;html=1;align=center;verticalAlign=middle;whiteSpace=wrap;rounded=0;" parent="1" vertex="1">
          <mxGeometry x="80" y="1390" width="60" height="25" as="geometry" />
        </mxCell>
        <mxCell id="bXG1rTM1ORV19wpb9zZl-220" value="" style="verticalLabelPosition=bottom;verticalAlign=top;html=1;shape=mxgraph.basic.cone;rotation=-181;" parent="1" vertex="1">
          <mxGeometry x="240" y="1370" width="100" height="100" as="geometry" />
        </mxCell>
        <mxCell id="bXG1rTM1ORV19wpb9zZl-235" value="" style="shape=cylinder3;whiteSpace=wrap;html=1;boundedLbl=1;backgroundOutline=1;size=15;" parent="1" vertex="1">
          <mxGeometry x="430" y="1360" width="80" height="90" as="geometry" />
        </mxCell>
        <mxCell id="bXG1rTM1ORV19wpb9zZl-267" style="edgeStyle=orthogonalEdgeStyle;rounded=0;orthogonalLoop=1;jettySize=auto;html=1;" parent="1" source="bXG1rTM1ORV19wpb9zZl-255" edge="1">
          <mxGeometry relative="1" as="geometry">
            <mxPoint x="90" y="1450" as="targetPoint" />
          </mxGeometry>
        </mxCell>
        <mxCell id="bXG1rTM1ORV19wpb9zZl-255" value="" style="verticalLabelPosition=bottom;verticalAlign=top;html=1;shape=mxgraph.basic.frame;dx=10;whiteSpace=wrap;" parent="1" vertex="1">
          <mxGeometry x="223.13" y="1600" width="153.75" height="80" as="geometry" />
        </mxCell>
        <mxCell id="bXG1rTM1ORV19wpb9zZl-256" value="" style="verticalLabelPosition=bottom;verticalAlign=top;html=1;shape=mxgraph.basic.polygon;polyCoords=[[0.25,0],[0.75,0],[1,0.25],[1,0.75],[0.75,1],[0.25,1],[0,0.75],[0,0.25]];polyline=0;" parent="1" vertex="1">
          <mxGeometry x="259.38" y="1690" width="80" height="10" as="geometry" />
        </mxCell>
        <mxCell id="bXG1rTM1ORV19wpb9zZl-257" value="" style="html=1;points=[[0,0,0,0,5],[0,1,0,0,-5],[1,0,0,0,5],[1,1,0,0,-5]];perimeter=orthogonalPerimeter;outlineConnect=0;targetShapes=umlLifeline;portConstraint=eastwest;newEdgeStyle={&quot;curved&quot;:0,&quot;rounded&quot;:0};" parent="1" vertex="1">
          <mxGeometry x="294.38" y="1680" width="10" height="10" as="geometry" />
        </mxCell>
        <mxCell id="bXG1rTM1ORV19wpb9zZl-261" style="edgeStyle=orthogonalEdgeStyle;rounded=0;orthogonalLoop=1;jettySize=auto;html=1;" parent="1" edge="1">
          <mxGeometry relative="1" as="geometry">
            <mxPoint x="401.25" y="1399.5" as="targetPoint" />
            <mxPoint x="341.25" y="1399.5" as="sourcePoint" />
          </mxGeometry>
        </mxCell>
        <mxCell id="bXG1rTM1ORV19wpb9zZl-262" value="&lt;b&gt;Store&lt;/b&gt;" style="text;html=1;align=center;verticalAlign=middle;whiteSpace=wrap;rounded=0;" parent="1" vertex="1">
          <mxGeometry x="440" y="1400" width="60" height="30" as="geometry" />
        </mxCell>
        <mxCell id="bXG1rTM1ORV19wpb9zZl-263" value="&lt;b&gt;Reducer&lt;/b&gt;" style="text;html=1;align=center;verticalAlign=middle;whiteSpace=wrap;rounded=0;" parent="1" vertex="1">
          <mxGeometry x="261.25" y="1390" width="60" height="30" as="geometry" />
        </mxCell>
        <mxCell id="bXG1rTM1ORV19wpb9zZl-264" value="&lt;b&gt;UI&lt;/b&gt;" style="text;html=1;align=center;verticalAlign=middle;whiteSpace=wrap;rounded=0;" parent="1" vertex="1">
          <mxGeometry x="270.01" y="1620" width="60" height="30" as="geometry" />
        </mxCell>
        <mxCell id="bXG1rTM1ORV19wpb9zZl-269" value="Recebem e tratam as informações para que sejam ou não enviadas à Store." style="text;html=1;align=center;verticalAlign=middle;whiteSpace=wrap;rounded=0;" parent="1" vertex="1">
          <mxGeometry x="236.25" y="1310" width="107.5" height="30" as="geometry" />
        </mxCell>
        <mxCell id="bXG1rTM1ORV19wpb9zZl-271" value=" Armazena e centraliza o estado geral da aplicação. Nunca se altera, apenas evolui." style="text;html=1;align=center;verticalAlign=middle;whiteSpace=wrap;rounded=0;" parent="1" vertex="1">
          <mxGeometry x="400.32" y="1310" width="139.37" height="30" as="geometry" />
        </mxCell>
        <mxCell id="bXG1rTM1ORV19wpb9zZl-274" value="fontes de informações que são enviadas da aplicação para a Store. " style="text;html=1;align=center;verticalAlign=middle;whiteSpace=wrap;rounded=0;" parent="1" vertex="1">
          <mxGeometry x="57.5" y="1310" width="112.5" height="30" as="geometry" />
        </mxCell>
        <mxCell id="bXG1rTM1ORV19wpb9zZl-276" value="Define os melhores aspecto para melhor interação ao usuario.E uma conecção de compionentes Redux para poderem se increver a evolução do Estado da store" style="text;html=1;align=center;verticalAlign=middle;whiteSpace=wrap;rounded=0;" parent="1" vertex="1">
          <mxGeometry x="215" y="1530" width="170" height="30" as="geometry" />
        </mxCell>
        <mxCell id="bXG1rTM1ORV19wpb9zZl-277" style="edgeStyle=orthogonalEdgeStyle;rounded=0;orthogonalLoop=1;jettySize=auto;html=1;entryX=1;entryY=0.5;entryDx=0;entryDy=0;entryPerimeter=0;exitX=1;exitY=0;exitDx=0;exitDy=60;exitPerimeter=0;" parent="1" source="bXG1rTM1ORV19wpb9zZl-235" target="bXG1rTM1ORV19wpb9zZl-255" edge="1">
          <mxGeometry relative="1" as="geometry">
            <Array as="points">
              <mxPoint x="510" y="1415" />
              <mxPoint x="550" y="1415" />
              <mxPoint x="550" y="1640" />
            </Array>
          </mxGeometry>
        </mxCell>
        <mxCell id="bXG1rTM1ORV19wpb9zZl-284" value="Centraliza todos os dados e torna muito fácil para um componente obter o&lt;br&gt; estado de que necessita. Portanto, ao desenvolver aplicativos grandes e&lt;br&gt; complexos com muitos componentes, o armazenamento Redux é altamente &lt;br&gt;preferido." style="text;whiteSpace=wrap;html=1;" parent="1" vertex="1">
          <mxGeometry x="40" y="1090" width="420" height="61" as="geometry" />
        </mxCell>
        <mxCell id="bXG1rTM1ORV19wpb9zZl-287" value="&lt;p&gt;Centraliza todos os dados e torna muito fácil para um componente obter o&lt;br&gt; estado de que necessita. Portanto, ao desenvolver aplicativos grandes e&lt;br&gt; complexos com muitos componentes, o armazenamento Redux é altamente &lt;br&gt;preferido.&lt;/p&gt;&lt;p&gt;Desvantagem é que é uma ferramenta muito complexa para projetos menores&lt;br&gt;&lt;/p&gt;&lt;p&gt;&lt;br&gt;&lt;/p&gt;" style="text;html=1;whiteSpace=wrap;overflow=hidden;rounded=0;" parent="1" vertex="1">
          <mxGeometry x="40" y="1720" width="440" height="120" as="geometry" />
        </mxCell>
        <mxCell id="FNCFgyulUYmUjKVOpaEw-1" value="&lt;h1 style=&quot;margin-top: 0px;&quot;&gt;React State&lt;br&gt;&lt;/h1&gt;&lt;p&gt;&amp;nbsp;No React ,estado refere-se a um objeto que aramazena dados importantes para um componentes,esses dados podem ser qualquer coisa ,um valor unico&amp;nbsp; até um objeto complexo. A principal razão ao usar o estado no React é permitir a criação de interface de usuário mais dinâmica e interativas.&lt;/p&gt;&lt;p&gt;Ao armazenar dados no estado de um componente o componete pode atualizar em resposta às interações do usuário ou com alterações nos dados do aplictivo.O objeto de estado é onde vocẽ pode armazenar valores de propriedades que pertencem ao componebtes ou seja quando um objeto de estado muda,o componebte é renderizado novamente.&lt;br&gt;&lt;/p&gt;&lt;pre dir=&quot;ltr&quot; data-ved=&quot;2ahUKEwiJgpeIwp6FAxWqr5UCHbw4AgMQ3ewLegQIChAT&quot; aria-label=&quot;Texto traduzido&quot; style=&quot;text-align:left&quot; id=&quot;tw-target-text&quot; data-placeholder=&quot;Tradução&quot; class=&quot;tw-data-text tw-text-large tw-ta&quot;&gt;&lt;span lang=&quot;pt&quot; class=&quot;Y2IQFc&quot;&gt;&lt;br&gt;&lt;/span&gt;&lt;/pre&gt;" style="text;html=1;whiteSpace=wrap;overflow=hidden;rounded=0;" vertex="1" parent="1">
          <mxGeometry x="30" y="1840" width="740" height="150" as="geometry" />
        </mxCell>
        <mxCell id="FNCFgyulUYmUjKVOpaEw-4" value="&lt;b&gt;Exemplo de como funciona o fluxo de ciclo de vida no React State&lt;br&gt;&lt;/b&gt;" style="text;html=1;align=center;verticalAlign=middle;whiteSpace=wrap;rounded=0;" vertex="1" parent="1">
          <mxGeometry x="30" y="2020" width="110" height="30" as="geometry" />
        </mxCell>
        <mxCell id="FNCFgyulUYmUjKVOpaEw-16" value="" style="shape=cylinder3;whiteSpace=wrap;html=1;boundedLbl=1;backgroundOutline=1;size=15;" vertex="1" parent="1">
          <mxGeometry x="326.25" y="2050" width="85" height="80" as="geometry" />
        </mxCell>
        <mxCell id="FNCFgyulUYmUjKVOpaEw-17" value="" style="ellipse;whiteSpace=wrap;html=1;" vertex="1" parent="1">
          <mxGeometry x="335" y="2050" width="70" height="20" as="geometry" />
        </mxCell>
        <mxCell id="FNCFgyulUYmUjKVOpaEw-27" value="" style="verticalLabelPosition=bottom;verticalAlign=top;html=1;shape=mxgraph.basic.arc;startAngle=0.5882207780133688;endAngle=0.908890190909391;rotation=-90;" vertex="1" parent="1">
          <mxGeometry x="343.75" y="2010" width="50" height="100" as="geometry" />
        </mxCell>
        <mxCell id="FNCFgyulUYmUjKVOpaEw-173" style="edgeStyle=orthogonalEdgeStyle;rounded=0;orthogonalLoop=1;jettySize=auto;html=1;" edge="1" parent="1" source="FNCFgyulUYmUjKVOpaEw-29" target="FNCFgyulUYmUjKVOpaEw-174">
          <mxGeometry relative="1" as="geometry">
            <mxPoint x="600" y="2190" as="targetPoint" />
            <Array as="points">
              <mxPoint x="610" y="2090" />
            </Array>
          </mxGeometry>
        </mxCell>
        <mxCell id="FNCFgyulUYmUjKVOpaEw-29" value="&lt;b&gt;State&lt;/b&gt;" style="text;html=1;align=center;verticalAlign=middle;whiteSpace=wrap;rounded=0;" vertex="1" parent="1">
          <mxGeometry x="342.49" y="2090" width="67.51" height="30" as="geometry" />
        </mxCell>
        <mxCell id="FNCFgyulUYmUjKVOpaEw-34" value="" style="ellipse;whiteSpace=wrap;html=1;aspect=fixed;strokeColor=default;" vertex="1" parent="1">
          <mxGeometry x="372.64" y="2260" width="23.76" height="23.76" as="geometry" />
        </mxCell>
        <mxCell id="FNCFgyulUYmUjKVOpaEw-35" value="" style="shape=or;whiteSpace=wrap;html=1;rotation=-90;" vertex="1" parent="1">
          <mxGeometry x="365.07" y="2270.24" width="40.14" height="62.2" as="geometry" />
        </mxCell>
        <mxCell id="FNCFgyulUYmUjKVOpaEw-178" style="edgeStyle=orthogonalEdgeStyle;rounded=0;orthogonalLoop=1;jettySize=auto;html=1;" edge="1" parent="1" source="FNCFgyulUYmUjKVOpaEw-36">
          <mxGeometry relative="1" as="geometry">
            <mxPoint x="320" y="2090" as="targetPoint" />
            <Array as="points">
              <mxPoint x="140" y="2090" />
              <mxPoint x="300" y="2090" />
            </Array>
          </mxGeometry>
        </mxCell>
        <mxCell id="FNCFgyulUYmUjKVOpaEw-36" value="" style="verticalLabelPosition=bottom;verticalAlign=top;html=1;shape=mxgraph.basic.patternFillRect;fillStyle=diag;step=5;fillStrokeWidth=0.2;fillStrokeColor=#dddddd;" vertex="1" parent="1">
          <mxGeometry x="90" y="2178.58" width="100" height="40" as="geometry" />
        </mxCell>
        <mxCell id="FNCFgyulUYmUjKVOpaEw-117" value="" style="ellipse;whiteSpace=wrap;html=1;" vertex="1" parent="1">
          <mxGeometry x="325.3" y="2171" width="94.37" height="30" as="geometry" />
        </mxCell>
        <mxCell id="FNCFgyulUYmUjKVOpaEw-122" value="" style="ellipse;whiteSpace=wrap;html=1;rotation=60;" vertex="1" parent="1">
          <mxGeometry x="329.68" y="2171" width="90" height="30" as="geometry" />
        </mxCell>
        <mxCell id="FNCFgyulUYmUjKVOpaEw-127" value="" style="ellipse;whiteSpace=wrap;html=1;rotation=120;" vertex="1" parent="1">
          <mxGeometry x="329.68" y="2171" width="90" height="30" as="geometry" />
        </mxCell>
        <mxCell id="FNCFgyulUYmUjKVOpaEw-128" value="" style="ellipse;whiteSpace=wrap;html=1;aspect=fixed;fillColor=#3399FF;" vertex="1" parent="1">
          <mxGeometry x="367.27000000000004" y="2178.58" width="14.83" height="14.83" as="geometry" />
        </mxCell>
        <mxCell id="FNCFgyulUYmUjKVOpaEw-142" value="" style="endArrow=none;html=1;rounded=0;" edge="1" parent="1">
          <mxGeometry width="50" height="50" relative="1" as="geometry">
            <mxPoint x="394.81" y="2191" as="sourcePoint" />
            <mxPoint x="374.81" y="2161" as="targetPoint" />
          </mxGeometry>
        </mxCell>
        <mxCell id="FNCFgyulUYmUjKVOpaEw-144" value="" style="endArrow=none;html=1;rounded=0;entryX=0.731;entryY=0.9;entryDx=0;entryDy=0;entryPerimeter=0;" edge="1" parent="1" target="FNCFgyulUYmUjKVOpaEw-122">
          <mxGeometry width="50" height="50" relative="1" as="geometry">
            <mxPoint x="356.55" y="2181" as="sourcePoint" />
            <mxPoint x="369.67" y="2211" as="targetPoint" />
          </mxGeometry>
        </mxCell>
        <mxCell id="FNCFgyulUYmUjKVOpaEw-145" value="" style="endArrow=none;html=1;rounded=0;exitX=0.771;exitY=1.109;exitDx=0;exitDy=0;exitPerimeter=0;entryX=1;entryY=1;entryDx=0;entryDy=0;" edge="1" parent="1" source="FNCFgyulUYmUjKVOpaEw-127" target="FNCFgyulUYmUjKVOpaEw-117">
          <mxGeometry width="50" height="50" relative="1" as="geometry">
            <mxPoint x="354.33" y="2200" as="sourcePoint" />
            <mxPoint x="409.67" y="2191" as="targetPoint" />
            <Array as="points">
              <mxPoint x="369.67" y="2201" />
            </Array>
          </mxGeometry>
        </mxCell>
        <mxCell id="FNCFgyulUYmUjKVOpaEw-147" value="" style="endArrow=none;html=1;rounded=0;entryX=0.777;entryY=0.067;entryDx=0;entryDy=0;entryPerimeter=0;exitX=0.248;exitY=0.1;exitDx=0;exitDy=0;exitPerimeter=0;" edge="1" parent="1" source="FNCFgyulUYmUjKVOpaEw-117" target="FNCFgyulUYmUjKVOpaEw-117">
          <mxGeometry width="50" height="50" relative="1" as="geometry">
            <mxPoint x="347.67" y="2171" as="sourcePoint" />
            <mxPoint x="397.49" y="2171" as="targetPoint" />
          </mxGeometry>
        </mxCell>
        <mxCell id="FNCFgyulUYmUjKVOpaEw-148" value="React" style="text;html=1;align=center;verticalAlign=middle;whiteSpace=wrap;rounded=0;" vertex="1" parent="1">
          <mxGeometry x="346.25" y="2220" width="60" height="30" as="geometry" />
        </mxCell>
        <mxCell id="FNCFgyulUYmUjKVOpaEw-172" value="Olá! Luciana" style="shape=document;whiteSpace=wrap;html=1;boundedLbl=1;" vertex="1" parent="1">
          <mxGeometry x="545" y="2193.41" width="95" height="36.59" as="geometry" />
        </mxCell>
        <mxCell id="FNCFgyulUYmUjKVOpaEw-174" value="Envie o valor do estado a tualizado pra que Luciana possa visualizar" style="text;html=1;align=center;verticalAlign=middle;whiteSpace=wrap;rounded=0;" vertex="1" parent="1">
          <mxGeometry x="470" y="2150" width="291" height="28.58" as="geometry" />
        </mxCell>
        <mxCell id="FNCFgyulUYmUjKVOpaEw-175" value="Atualizar Luciana no objeto de estado" style="text;html=1;align=center;verticalAlign=middle;whiteSpace=wrap;rounded=0;" vertex="1" parent="1">
          <mxGeometry x="150" y="2060" width="130" height="30" as="geometry" />
        </mxCell>
        <mxCell id="FNCFgyulUYmUjKVOpaEw-180" value="Visualizar&amp;nbsp; mensagen atualizada" style="text;html=1;align=center;verticalAlign=middle;whiteSpace=wrap;rounded=0;" vertex="1" parent="1">
          <mxGeometry x="500" y="2265.17" width="180" height="30" as="geometry" />
        </mxCell>
        <mxCell id="FNCFgyulUYmUjKVOpaEw-185" style="edgeStyle=orthogonalEdgeStyle;rounded=0;orthogonalLoop=1;jettySize=auto;html=1;" edge="1" parent="1">
          <mxGeometry relative="1" as="geometry">
            <mxPoint x="611.5100000000001" y="2295.17" as="sourcePoint" />
            <mxPoint x="416.25" y="2311.25" as="targetPoint" />
            <Array as="points">
              <mxPoint x="611.25" y="2310.25" />
              <mxPoint x="416.25" y="2310.25" />
            </Array>
          </mxGeometry>
        </mxCell>
        <mxCell id="FNCFgyulUYmUjKVOpaEw-189" value="" style="endArrow=none;html=1;rounded=0;" edge="1" parent="1">
          <mxGeometry width="50" height="50" relative="1" as="geometry">
            <mxPoint x="609.5" y="2192" as="sourcePoint" />
            <mxPoint x="609.5" y="2170" as="targetPoint" />
          </mxGeometry>
        </mxCell>
        <mxCell id="FNCFgyulUYmUjKVOpaEw-190" value="" style="endArrow=none;html=1;rounded=0;" edge="1" parent="1">
          <mxGeometry width="50" height="50" relative="1" as="geometry">
            <mxPoint x="609.5" y="2270.24" as="sourcePoint" />
            <mxPoint x="609.5" y="2220.24" as="targetPoint" />
          </mxGeometry>
        </mxCell>
        <mxCell id="FNCFgyulUYmUjKVOpaEw-192" value="Luciana" style="text;html=1;align=center;verticalAlign=middle;whiteSpace=wrap;rounded=0;" vertex="1" parent="1">
          <mxGeometry x="100" y="2183.58" width="60" height="30" as="geometry" />
        </mxCell>
        <mxCell id="FNCFgyulUYmUjKVOpaEw-197" style="edgeStyle=orthogonalEdgeStyle;rounded=0;orthogonalLoop=1;jettySize=auto;html=1;" edge="1" parent="1" source="FNCFgyulUYmUjKVOpaEw-193">
          <mxGeometry relative="1" as="geometry">
            <mxPoint x="140" y="2230" as="targetPoint" />
          </mxGeometry>
        </mxCell>
        <mxCell id="FNCFgyulUYmUjKVOpaEw-193" value="Tipo" style="text;html=1;align=center;verticalAlign=middle;whiteSpace=wrap;rounded=0;" vertex="1" parent="1">
          <mxGeometry x="215" y="2295.17" width="60" height="30" as="geometry" />
        </mxCell>
        <mxCell id="FNCFgyulUYmUjKVOpaEw-195" value="" style="endArrow=none;html=1;rounded=0;" edge="1" parent="1">
          <mxGeometry width="50" height="50" relative="1" as="geometry">
            <mxPoint x="259.38" y="2309.67" as="sourcePoint" />
            <mxPoint x="355.63" y="2309.67" as="targetPoint" />
          </mxGeometry>
        </mxCell>
      </root>
    </mxGraphModel>
  </diagram>
</mxfile>
